<svg width="190" height="52" viewBox="0 0 190 52" fill="none" xmlns="http://www.w3.org/2000/svg">
<g clip-path="url(#clip0)">
<path d="M28.1094 0C28.7435 0.187882 29.3968 0.302971 30.0569 0.343052C35.3302 1.2051 40.1983 3.70502 43.9713 7.48846C47.7443 11.2719 50.2308 16.1469 51.0783 21.4225C52.4189 29.7086 50.1864 37.0606 44.4389 43.225C40.248 47.767 34.5181 50.5887 28.3628 51.1417C28.2625 51.1417 28.1516 51.1417 28.1094 51.2683H23.6814C23.5864 51.0994 23.4175 51.1681 23.2802 51.1522C16.9898 50.6073 11.1415 47.6925 6.91914 42.9981C1.32998 36.8547 -0.802245 29.5556 0.527755 21.3486C1.38435 16.2284 3.7832 11.4915 7.40376 7.77096C11.0243 4.05043 15.6941 1.52348 20.7891 0.527778C21.7866 0.3325 22.8 0.195276 23.808 0.0316654L28.1094 0ZM49.268 25.6658C49.2737 21.0346 47.9103 16.5051 45.3492 12.6465C42.7882 8.78786 39.1437 5.77233 34.8739 3.97886C30.6041 2.18539 25.8994 1.69401 21.3511 2.56648C16.8029 3.43895 12.6139 5.63633 9.31084 8.88248C6.00773 12.1286 3.73782 16.2787 2.78637 20.8111C1.83492 25.3435 2.24439 30.056 3.96332 34.3564C5.68225 38.6568 8.63393 42.3531 12.4474 44.9809C16.2609 47.6087 20.7661 49.0506 25.3966 49.1256C28.5106 49.1788 31.604 48.6117 34.4967 47.4574C37.3893 46.3031 40.0232 44.5846 42.245 42.4021C44.4668 40.2196 46.232 37.6167 47.4378 34.7452C48.6435 31.8736 49.2657 28.7908 49.268 25.6764V25.6658Z" fill="white"/>
<path d="M190 10.3919C189.839 10.7936 189.557 11.1348 189.193 11.3677C188.828 11.6006 188.4 11.7134 187.968 11.6903C187.533 11.7116 187.104 11.578 186.758 11.3132C186.413 11.0485 186.172 10.6697 186.079 10.2442C185.971 9.81181 186.018 9.35556 186.21 8.95388C186.403 8.55221 186.73 8.23023 187.134 8.04333C187.56 7.85259 188.037 7.80818 188.49 7.91703C188.944 8.02588 189.348 8.28186 189.641 8.64499C189.757 8.80333 189.762 9.04083 189.984 9.13055L190 10.3919Z" fill="white"/>
<path d="M118.586 17.1739C118.697 17.3797 118.866 17.3639 118.998 17.4167C120.851 18.1503 122.054 19.4275 122.26 21.4594C122.395 22.4503 122.231 23.459 121.789 24.3561C121.347 25.2532 120.647 25.9978 119.779 26.4944C118.477 27.2401 117.014 27.6602 115.515 27.7189C113.477 27.8702 111.43 27.8367 109.398 27.6186C109.023 27.5869 108.96 27.4339 108.96 27.0908C108.96 21.0636 108.96 15.0346 108.96 9.00388C108.96 8.7136 109.002 8.53416 109.345 8.4761C112.047 8.15944 114.755 7.94832 117.457 8.4761C118.679 8.68933 119.794 9.30632 120.624 10.2283C121.029 10.7027 121.326 11.2606 121.492 11.8625C121.657 12.4644 121.688 13.0954 121.583 13.7107C121.477 14.3259 121.237 14.9103 120.879 15.4222C120.522 15.9341 120.056 16.361 119.515 16.6725C119.209 16.8889 118.903 17.005 118.586 17.1739ZM112.469 21.9239C112.469 22.8053 112.469 23.6919 112.469 24.5628C112.469 24.7844 112.406 25.0589 112.77 25.0642C113.942 25.0642 115.119 25.2172 116.269 24.8372C117.816 24.3094 118.565 23.3489 118.528 21.8236C118.497 20.4092 117.631 19.4064 116.095 19.0106C115.022 18.7936 113.927 18.7103 112.834 18.7625C112.501 18.7625 112.464 18.9314 112.464 19.1953C112.475 20.1083 112.469 21.0108 112.469 21.9186V21.9239ZM112.469 13.5586C112.469 14.2922 112.469 15.0311 112.469 15.7647C112.469 15.9442 112.411 16.1922 112.702 16.1922C114.084 16.1922 115.488 16.3347 116.76 15.5958C117.199 15.3596 117.554 14.9932 117.776 14.5472C117.998 14.1011 118.076 13.5972 118.001 13.1047C117.965 12.6277 117.778 12.1744 117.468 11.8102C117.158 11.4459 116.74 11.1896 116.275 11.0781C115.134 10.7857 113.945 10.7265 112.781 10.9039C112.48 10.9039 112.464 11.1255 112.464 11.3472C112.475 12.0808 112.469 12.8144 112.469 13.5533V13.5586Z" fill="white"/>
<path d="M170.747 18.1186C170.747 15.1243 170.747 12.1336 170.747 9.14638C170.747 8.88777 170.646 8.57638 171.069 8.52888C173.734 8.21749 176.394 7.94305 179.054 8.49721C181.883 9.08832 183.456 10.8722 183.709 13.7117C183.845 14.9914 183.551 16.2799 182.875 17.3747C182.198 18.4695 181.177 19.3086 179.972 19.76C178.332 20.3876 176.565 20.6102 174.821 20.4092C174.388 20.3722 174.246 20.4514 174.251 20.9369C174.278 22.9794 174.251 25.0272 174.251 27.075C174.251 27.5078 174.156 27.6608 173.697 27.6397C172.9 27.6028 172.114 27.5975 171.296 27.6397C170.826 27.6397 170.699 27.5394 170.705 27.0592C170.763 24.0667 170.747 21.1111 170.747 18.1186ZM174.272 14.3028V17.1475C174.272 17.3533 174.23 17.5803 174.547 17.6172C175.86 17.8638 177.217 17.7036 178.436 17.158C179.766 16.4772 180.352 15.1842 180.12 13.5322C180.017 12.8913 179.71 12.3008 179.244 11.8489C178.778 11.3971 178.178 11.1082 177.534 11.0253C176.597 10.8802 175.642 10.8802 174.705 11.0253C174.336 11.0675 174.262 11.2153 174.267 11.553C174.283 12.445 174.272 13.3739 174.272 14.3028Z" fill="white"/>
<path d="M95.9395 25.5286C95.2523 26.5972 94.1999 27.3794 92.9787 27.7295C89.7645 28.595 87.1731 26.8745 86.7034 23.5811C86.5804 22.3855 86.5416 21.1827 86.5873 19.9817C86.5873 18.0606 86.5873 16.1395 86.5873 14.2236C86.5873 13.7645 86.7192 13.6536 87.152 13.6958C87.9308 13.7354 88.7112 13.7354 89.49 13.6958C90.0178 13.6642 90.1656 13.7803 90.1603 14.3345C90.1234 16.6725 90.1603 19.0158 90.1603 21.3592C90.1492 21.9929 90.2347 22.6247 90.4137 23.2328C90.5136 23.6333 90.7133 24.002 90.9943 24.3045C91.2752 24.607 91.6282 24.8333 92.0203 24.9624C92.4124 25.0915 92.8308 25.1192 93.2365 25.0429C93.6422 24.9665 94.022 24.7887 94.3403 24.5258C94.7402 24.247 95.0651 23.8737 95.2861 23.4391C95.507 23.0046 95.6173 22.5222 95.607 22.0347C95.607 19.4381 95.607 16.8414 95.607 14.25C95.607 13.8014 95.7178 13.6747 96.1612 13.6958C96.9845 13.7328 97.8078 13.7381 98.6312 13.6958C99.0956 13.6958 99.1589 13.8383 99.1589 14.2606C99.1589 17.7439 99.1589 21.2255 99.1589 24.7053C99.1589 25.5075 99.1906 26.2886 99.2539 27.1067C99.2803 27.5078 99.2064 27.6661 98.7631 27.6345C98.0506 27.5975 97.3328 27.6028 96.615 27.6345C96.2403 27.6345 96.0873 27.5447 96.0873 27.1489C96.0556 26.6475 95.9923 26.1514 95.9395 25.5286Z" fill="white"/>
<path d="M132.578 21.6389C131.206 21.6389 129.839 21.6389 128.466 21.6389C127.981 21.6389 127.896 21.8078 127.976 22.2247C128.077 22.8762 128.368 23.4832 128.813 23.9696C129.258 24.456 129.837 24.8 130.477 24.9586C132.162 25.3912 133.936 25.3122 135.576 24.7317C135.987 24.605 136.103 24.6894 136.183 25.08C136.235 25.4984 136.324 25.9115 136.446 26.315C136.647 26.8955 136.473 27.1489 135.876 27.3178C133.841 27.9644 131.675 28.0842 129.58 27.6661C126.783 27.0169 125.11 25.233 124.661 22.3883C124.228 19.6492 124.751 17.1422 126.772 15.0997C129.131 12.7194 134.23 12.5875 136.214 15.8386C137.154 17.4763 137.539 19.3739 137.312 21.2483C137.286 21.6336 137.059 21.6547 136.758 21.6494L132.578 21.6389ZM130.995 19.1425H133.633C133.808 19.1425 134.04 19.2058 134.013 18.8839C133.887 17.1475 132.958 15.8808 131.322 15.7964C129.279 15.6961 128.255 17.3217 127.97 18.8205C127.912 19.1478 128.108 19.1478 128.34 19.1478L130.995 19.1425Z" fill="white"/>
<path d="M79.6945 26.0617C79.058 26.8065 78.2292 27.3623 77.2986 27.6684C76.3679 27.9746 75.3711 28.0195 74.4167 27.7981C73.6069 27.6662 72.8614 27.2765 72.2908 26.687C71.7203 26.0974 71.3553 25.3395 71.25 24.5258C71.0555 23.6635 71.1322 22.7621 71.4694 21.9449C71.8067 21.1278 72.3881 20.4347 73.1342 19.9606C74.8178 18.8047 76.7653 18.5883 78.7339 18.4986C79.457 18.467 79.5045 18.4247 79.3725 17.7017C79.2888 17.2518 79.0633 16.8406 78.729 16.5281C78.3947 16.2157 77.9692 16.0184 77.5147 15.9653C76.0667 15.732 74.5821 15.9844 73.2925 16.6831C72.9389 16.8572 72.7647 16.8625 72.7014 16.4508C72.6101 16.0188 72.483 15.5951 72.3214 15.1842C72.142 14.725 72.2264 14.4875 72.7014 14.2764C74.5784 13.4347 76.6599 13.1578 78.6917 13.4794C81.2514 13.8911 82.7714 15.6645 82.9139 18.3245C82.972 19.38 82.9403 20.4725 82.9456 21.5492C82.8945 23.4654 82.9597 25.383 83.1408 27.2914C83.1725 27.5711 83.0775 27.6186 82.84 27.6133C82.0008 27.6133 81.1564 27.6133 80.312 27.6133C79.9953 27.6133 79.9214 27.4708 79.8897 27.207C79.8422 26.8586 79.7842 26.5103 79.6945 26.0617ZM79.4728 22.0717C79.4728 21.755 79.4728 21.4383 79.4728 21.1269C79.4728 20.8156 79.3936 20.7839 79.1456 20.7944C78.0499 20.7641 76.9607 20.9712 75.9525 21.4014C75.4273 21.6347 75.0133 22.0628 74.7976 22.5955C74.582 23.1281 74.5816 23.7238 74.7967 24.2567C75.1714 25.2067 76.285 25.6183 77.4778 25.2489C78.8922 24.8056 79.4939 23.8608 79.4939 22.0717H79.4728Z" fill="white"/>
<path d="M157.763 26.0775C156.802 27.1488 155.462 27.8054 154.027 27.9089C151.879 28.0831 150.079 27.0222 149.43 25.1381C149.101 24.1738 149.109 23.1265 149.454 22.1676C149.798 21.2088 150.458 20.3953 151.324 19.8603C153.008 18.8047 154.908 18.5461 156.834 18.5303C157.484 18.5303 157.521 18.2769 157.426 17.7967C157.178 16.4931 156.074 15.77 154.444 15.8756C153.338 15.9092 152.255 16.1944 151.277 16.7094C150.955 16.8942 150.818 16.8572 150.749 16.4825C150.64 15.9891 150.495 15.504 150.316 15.0311C150.169 14.6564 150.316 14.5033 150.623 14.3556C152.711 13.3511 155.081 13.094 157.336 13.6272C159.663 14.1919 160.972 16.1342 160.999 18.905C161.025 21.1375 160.999 23.3753 161.03 25.6078C161.043 26.1763 161.087 26.7436 161.162 27.3072C161.194 27.5658 161.131 27.645 160.877 27.645C160.033 27.645 159.194 27.645 158.349 27.645C158.091 27.645 157.969 27.5764 157.948 27.2967C157.927 27.0169 157.843 26.5736 157.763 26.0775ZM157.563 22.0083C157.563 21.7339 157.563 21.4806 157.563 21.185C157.563 20.8894 157.515 20.7839 157.22 20.7944C156.123 20.7635 155.033 20.9668 154.021 21.3908C153.492 21.6208 153.075 22.0498 152.86 22.5852C152.644 23.1205 152.648 23.719 152.871 24.2514C153.256 25.2172 154.333 25.6183 155.547 25.2489C156.961 24.8056 157.563 23.845 157.563 22.0083Z" fill="white"/>
<path d="M66.3523 19.4539C66.3523 21.945 66.3523 24.4361 66.3523 26.9219C66.3523 27.5289 66.1728 27.6608 65.6187 27.6239C64.8821 27.5817 64.1438 27.5817 63.4073 27.6239C62.9112 27.6556 62.7792 27.5025 62.7792 27.0011C62.7792 22.0242 62.7792 17.0472 62.8109 12.0703C62.8109 11.4106 62.6367 11.2628 62.0087 11.2839C60.5995 11.3367 59.1851 11.2839 57.7864 11.3103C57.4434 11.3103 57.3009 11.2364 57.3167 10.8564C57.3167 10.1861 57.3484 9.50528 57.3167 8.835C57.3167 8.44445 57.4117 8.30722 57.8076 8.33889C59.5176 8.33889 61.2223 8.33889 62.9323 8.33889C65.7348 8.33889 68.5426 8.33889 71.3451 8.33889C71.7726 8.33889 71.9415 8.42333 71.9098 8.86667C71.8755 9.49954 71.8755 10.1338 71.9098 10.7667C71.9098 11.1678 71.8201 11.2944 71.382 11.2944C69.8884 11.2681 68.3895 11.2944 66.8906 11.2944C66.442 11.2944 66.3312 11.4317 66.3365 11.8644C66.3628 14.3925 66.3523 16.9258 66.3523 19.4539Z" fill="white"/>
<path d="M144.194 19.9922C144.236 20.9317 144.11 22.0717 144.257 23.2064C144.437 24.6209 144.996 25.08 146.4 24.9745C146.611 24.9748 146.822 24.9536 147.028 24.9111C147.34 24.8161 147.398 24.9692 147.403 25.2225C147.403 25.8717 147.403 26.5261 147.445 27.1806C147.458 27.2364 147.458 27.2943 147.446 27.3502C147.434 27.4061 147.41 27.4588 147.376 27.5048C147.342 27.5508 147.299 27.589 147.249 27.6168C147.199 27.6446 147.143 27.6614 147.086 27.6661C145.857 27.9802 144.568 27.9802 143.339 27.6661C142.797 27.5195 142.302 27.2333 141.905 26.8361C141.508 26.4388 141.222 25.9443 141.075 25.402C140.857 24.6761 140.749 23.9219 140.753 23.1642C140.753 21.0531 140.753 18.9842 140.753 16.8995C140.753 16.4614 140.653 16.3347 140.225 16.34C138.758 16.34 138.758 16.34 138.758 14.8833C138.758 13.6906 138.758 13.6906 139.93 13.6906C140.764 13.6906 140.764 13.6906 140.764 12.8672C140.764 12.2128 140.764 11.5584 140.764 10.9039C140.754 10.8484 140.756 10.7914 140.77 10.7367C140.783 10.682 140.809 10.6308 140.843 10.5865C140.878 10.5422 140.922 10.5057 140.972 10.4795C141.022 10.4532 141.077 10.4378 141.133 10.4342C142.014 10.2284 142.896 10.0278 143.772 9.79557C144.184 9.68474 144.221 9.86418 144.221 10.202C144.221 11.2153 144.221 12.2286 144.221 13.2367C144.221 13.6008 144.326 13.7064 144.685 13.6958C145.508 13.6958 146.332 13.6958 147.15 13.6958C147.514 13.6958 147.63 13.7961 147.614 14.155C147.582 14.7246 147.582 15.2955 147.614 15.865C147.614 16.2397 147.535 16.3928 147.129 16.3928C146.347 16.3611 145.545 16.3928 144.791 16.3928C144.358 16.3928 144.199 16.4825 144.215 16.9206C144.215 17.8547 144.194 18.8259 144.194 19.9922Z" fill="white"/>
<path d="M186.211 20.6519C186.211 18.5039 186.211 16.3505 186.211 14.2025C186.211 13.7908 186.311 13.6747 186.738 13.6747C187.625 13.7064 188.506 13.6747 189.377 13.6747C189.704 13.6747 189.815 13.7697 189.81 14.1022C189.81 18.4687 189.81 22.8317 189.81 27.1911C189.81 27.5183 189.72 27.6292 189.383 27.6239C188.501 27.6239 187.614 27.5922 186.744 27.6239C186.337 27.6239 186.216 27.5236 186.216 27.0961C186.221 24.9533 186.205 22.8 186.211 20.6519Z" fill="white"/>
<path d="M130.219 37.8681C130.219 36.8969 130.25 35.9258 130.219 34.96C130.219 34.4322 130.504 34.5272 130.778 34.5536C131.053 34.58 131.506 34.3425 131.475 34.96C131.443 35.5775 131.475 36.1422 131.475 36.7333C131.475 37.0711 131.554 37.2294 131.934 37.2136C132.546 37.2136 133.158 37.1819 133.765 37.2136C134.182 37.24 134.261 37.0553 134.251 36.6858C134.251 36.0947 134.251 35.5036 134.251 34.9125C134.251 34.3214 134.604 34.5272 134.853 34.5483C135.101 34.5694 135.544 34.3056 135.544 34.8914C135.544 36.8917 135.544 38.8972 135.544 40.8975C135.544 41.515 135.064 41.193 134.794 41.2458C134.525 41.2986 134.24 41.3144 134.267 40.8711C134.293 40.1744 134.267 39.4778 134.267 38.76C134.267 38.4169 134.182 38.2692 133.813 38.2797C133.201 38.2797 132.588 38.3114 131.976 38.2797C131.57 38.2797 131.48 38.4275 131.491 38.8075C131.491 39.4831 131.491 40.1586 131.491 40.8342C131.491 41.5097 131.079 41.2142 130.789 41.2406C130.498 41.2669 130.219 41.2986 130.234 40.8236C130.245 39.8525 130.219 38.8603 130.219 37.8681Z" fill="white"/>
<path d="M89.9492 36.8389C89.9809 36.1317 90.5034 36.3639 90.8623 36.385C91.3109 36.385 91.0998 36.7967 91.1051 37.0236C91.1051 38.2269 91.1051 39.4303 91.1051 40.6336C91.0787 42.8503 89.1892 44.0061 87.1414 43.093C86.6453 42.8714 86.9409 42.5653 86.9831 42.3119C87.0359 41.9372 87.2417 42.0375 87.5109 42.1378C87.7465 42.2264 87.9935 42.2815 88.2445 42.3014C89.4056 42.4017 89.9123 41.9003 89.8753 40.718C88.5348 41.4253 87.5637 41.3303 86.8987 40.4225C86.5525 39.8901 86.3881 39.26 86.43 38.6264C86.4718 37.9927 86.7177 37.3897 87.1309 36.9075C87.8645 36.1105 88.9253 36.0789 89.9492 36.8389ZM89.8489 38.5489C89.8383 38.3803 89.8153 38.2127 89.7803 38.0475C89.7437 37.8371 89.6384 37.6447 89.4808 37.5005C89.3233 37.3563 89.1223 37.2684 88.9095 37.2505C88.7095 37.2341 88.5089 37.275 88.3313 37.3685C88.1537 37.4619 88.0064 37.6041 87.9067 37.7783C87.7543 38.0339 87.6724 38.3252 87.6692 38.6228C87.6112 39.5622 88.0598 40.2325 88.7617 40.2642C89.4637 40.2958 89.8489 39.7575 89.8489 38.5278V38.5489Z" fill="white"/>
<path d="M125.553 40.7075C124.593 41.3197 123.748 41.362 123.051 40.8606C122.644 40.5207 122.349 40.066 122.204 39.5557C122.059 39.0454 122.071 38.5033 122.239 38C122.335 37.543 122.576 37.129 122.926 36.8193C123.276 36.5095 123.716 36.3203 124.181 36.2795C124.45 36.2605 124.719 36.2977 124.973 36.3885C125.226 36.4794 125.458 36.622 125.653 36.8072C125.822 36.6647 125.764 36.3164 126.181 36.327C126.709 36.327 126.92 36.4114 126.888 37.0131C126.825 38.2058 126.862 39.4092 126.857 40.6125C126.857 42.8292 124.856 44.0378 122.851 43.0561C122.36 42.8186 122.724 42.5283 122.756 42.2645C122.788 42.0006 122.983 42.027 123.205 42.1061C123.481 42.2068 123.771 42.269 124.065 42.2908C125.136 42.3753 125.611 41.8792 125.553 40.7075ZM125.553 38.7495C125.566 38.5597 125.566 38.3692 125.553 38.1795C125.543 37.9553 125.456 37.7416 125.305 37.575C125.155 37.4084 124.952 37.2993 124.73 37.2664C124.52 37.2289 124.305 37.26 124.114 37.3551C123.924 37.4502 123.77 37.6042 123.674 37.7942C123.504 38.0624 123.414 38.3738 123.416 38.6914C123.416 39.6414 123.854 40.2747 124.566 40.2747C125.279 40.2747 125.611 39.7681 125.569 38.7495H125.553Z" fill="white"/>
<path d="M64.3889 36.86C64.6615 36.6743 64.9493 36.5118 65.2492 36.3745C65.4971 36.2771 65.765 36.2419 66.0296 36.2719C66.2942 36.3019 66.5474 36.3963 66.7671 36.5468C66.9868 36.6972 67.1663 36.8992 67.29 37.1351C67.4136 37.3709 67.4777 37.6334 67.4764 37.8997C67.5451 38.9078 67.4764 39.9264 67.5134 40.9345C67.5134 41.3672 67.2178 41.2933 66.9856 41.2564C66.7534 41.2195 66.2942 41.5097 66.2573 40.9503C66.2573 40.8236 66.2573 40.697 66.2573 40.5703C66.2573 39.8736 66.2573 39.177 66.2573 38.4592C66.2256 37.6411 65.9089 37.2822 65.3073 37.3139C64.7056 37.3456 64.3889 37.7731 64.3889 38.5278C64.3889 39.2825 64.3467 40.0056 64.3889 40.7392C64.4259 41.3197 64.0934 41.267 63.7239 41.267C63.3545 41.267 63.0695 41.267 63.0748 40.7392C63.1117 38.7336 63.117 36.7281 63.0748 34.7278C63.0748 34.1472 63.3651 34.2 63.7345 34.2C64.1039 34.2 64.4364 34.1525 64.3889 34.7278C64.3362 35.4086 64.3889 36.1053 64.3889 36.86Z" fill="white"/>
<path d="M75.9684 37.8681C75.9684 36.9181 75.9684 35.9681 75.9684 35.0181C75.9684 34.6697 76.0528 34.5378 76.4223 34.5431C77.4356 34.5712 78.4489 34.5712 79.4623 34.5431C79.8634 34.5431 79.9003 34.712 79.8898 35.0339C79.8792 35.3558 79.9214 35.6145 79.4464 35.5617C78.8395 35.5195 78.2273 35.5617 77.6151 35.5617C77.3142 35.5617 77.2298 35.6514 77.2139 35.9522C77.1612 37.2506 77.1506 37.2453 78.412 37.2453C78.6649 37.2664 78.9191 37.2664 79.172 37.2453C79.7314 37.1556 79.779 37.4564 79.7684 37.8945C79.7684 38.2164 79.6417 38.285 79.3567 38.2745C78.7656 38.2745 78.1745 38.2745 77.5834 38.2745C77.3089 38.2745 77.2351 38.3642 77.2192 38.6333C77.1031 40.2167 77.0925 40.2167 78.6495 40.2167C78.9026 40.2325 79.1564 40.2325 79.4095 40.2167C79.9003 40.1533 80.0745 40.3275 80.0428 40.8395C80.0428 41.1983 79.9214 41.3039 79.5678 41.2986C78.5123 41.2986 77.499 41.2722 76.4698 41.2986C76.0845 41.2986 75.942 41.1931 75.9684 40.8025C76.0001 39.8103 75.9684 38.8392 75.9684 37.8681Z" fill="white"/>
<path d="M161.679 34.4322C161.827 34.4322 162.117 34.5008 162.408 34.5325C163.02 34.5905 163.11 34.8967 162.888 35.4244C162.772 35.7147 162.661 35.7411 162.36 35.6355C161.911 35.4375 161.407 35.4021 160.935 35.5353C160.79 35.5642 160.657 35.6352 160.552 35.7393C160.447 35.8435 160.374 35.9763 160.344 36.1211C160.308 36.2766 160.326 36.4398 160.395 36.5837C160.464 36.7276 160.58 36.8437 160.724 36.9128C161.115 37.1239 161.526 37.2875 161.922 37.4722C163.036 38 163.453 38.7019 163.263 39.7575C163.11 40.5967 162.339 41.1825 161.268 41.3092C160.619 41.3688 159.965 41.3025 159.341 41.1139C158.692 40.9397 159.072 40.5333 159.114 40.2114C159.172 39.7628 159.452 39.9897 159.642 40.0742C160.093 40.2577 160.582 40.3284 161.067 40.28C161.269 40.2868 161.467 40.2261 161.631 40.1076C161.794 39.9891 161.913 39.8195 161.97 39.6255C162.036 39.4155 162.017 39.1881 161.919 38.9912C161.82 38.7943 161.649 38.6433 161.442 38.57C161.199 38.4486 160.946 38.343 160.692 38.2428C159.362 37.715 158.845 36.9708 159.072 35.8994C159.304 35.0075 160.281 34.4005 161.679 34.4322Z" fill="white"/>
<path d="M117.863 37.0025C118.207 36.6603 118.638 36.4192 119.109 36.3058C119.341 36.2498 119.583 36.2454 119.817 36.2932C120.051 36.3409 120.272 36.4395 120.464 36.582C120.656 36.7245 120.814 36.9074 120.927 37.1177C121.041 37.3281 121.106 37.5608 121.12 37.7994C121.199 38.855 121.162 39.9105 121.157 40.9661C121.157 41.4939 120.729 41.23 120.497 41.2617C120.265 41.2933 119.911 41.3989 119.922 40.9292C119.922 40.1903 119.922 39.4514 119.922 38.7125C119.922 37.7414 119.631 37.3139 119.014 37.3192C118.396 37.3244 118.048 37.8153 118.043 38.7442C118.043 39.4408 118.016 40.1375 118.043 40.8553C118.069 41.383 117.737 41.3092 117.425 41.2933C117.114 41.2775 116.729 41.4622 116.739 40.8605C116.771 39.5992 116.739 38.3325 116.739 37.0658C116.739 36.8442 116.449 36.3955 117.003 36.4061C117.383 36.4167 117.979 36.0578 117.863 37.0025Z" fill="white"/>
<path d="M187.541 39.805C187.857 38.7494 188.137 37.7783 188.427 36.8125C188.577 36.6067 188.79 36.4549 189.034 36.3798C189.277 36.3046 189.538 36.3102 189.778 36.3956C189.91 36.5011 189.815 36.6172 189.778 36.7281C189.182 38.3114 188.675 39.9528 187.947 41.4781C187.785 41.892 187.54 42.2682 187.227 42.5833C186.914 42.8984 186.539 43.1456 186.126 43.3094C185.941 43.3728 185.667 43.5364 185.646 43.1881C185.625 42.8397 185.16 42.5494 185.646 42.2644C185.757 42.2064 185.873 42.1536 185.978 42.085C186.781 41.5572 186.907 41.1878 186.564 40.3169C186.036 39.0186 185.535 37.7097 185.012 36.3903C186.358 36.2794 186.358 36.2794 186.749 37.4458L187.129 38.5806C187.271 38.9606 187.387 39.3353 187.541 39.805Z" fill="white"/>
<path d="M141.408 38.7917C141.408 40.3486 140.421 41.3672 138.922 41.3567C138.589 41.3694 138.257 41.3109 137.949 41.1851C137.641 41.0593 137.363 40.8692 137.134 40.6273C136.905 40.3855 136.731 40.0975 136.622 39.7828C136.514 39.468 136.473 39.1337 136.504 38.8022C136.484 38.4643 136.535 38.1259 136.655 37.8093C136.775 37.4928 136.961 37.2054 137.2 36.9662C137.44 36.7271 137.728 36.5417 138.045 36.4224C138.361 36.3031 138.7 36.2525 139.038 36.2742C140.484 36.29 141.413 37.2717 141.408 38.7917ZM140.141 38.7178C140.112 38.515 140.072 38.3141 140.019 38.1161C139.981 37.8644 139.853 37.635 139.659 37.4701C139.465 37.3052 139.218 37.216 138.964 37.2189C138.331 37.2189 138.04 37.6517 137.877 38.1794C137.795 38.5055 137.779 38.8446 137.829 39.1769C137.829 39.4839 137.941 39.7803 138.146 40.0092C138.351 40.2381 138.632 40.3834 138.938 40.4172C139.508 40.4172 139.94 40.0161 140.088 39.293C140.12 39.1294 140.12 38.9605 140.141 38.7178Z" fill="white"/>
<path d="M169 38.76C169 40.3433 168.05 41.3408 166.546 41.3567C166.213 41.3735 165.881 41.3192 165.571 41.1973C165.262 41.0755 164.981 40.8889 164.75 40.6501C164.518 40.4113 164.34 40.1257 164.227 39.8125C164.114 39.4993 164.07 39.1656 164.097 38.8339C164.071 38.4965 164.117 38.1575 164.232 37.8394C164.348 37.5214 164.53 37.2316 164.766 36.9893C165.002 36.7471 165.287 36.558 165.602 36.4347C165.917 36.3114 166.255 36.2566 166.593 36.2742C166.92 36.258 167.247 36.312 167.552 36.4323C167.856 36.5526 168.132 36.7366 168.36 36.9719C168.587 37.2072 168.762 37.4884 168.873 37.7968C168.983 38.1052 169.026 38.4335 169 38.76ZM167.712 38.9553C167.731 38.6631 167.697 38.3698 167.612 38.0897C167.612 37.8098 167.5 37.5413 167.302 37.3433C167.105 37.1454 166.836 37.0342 166.556 37.0342C166.276 37.0342 166.008 37.1454 165.81 37.3433C165.612 37.5413 165.501 37.8098 165.501 38.0897C165.386 38.4712 165.362 38.8744 165.432 39.2667C165.446 39.5513 165.56 39.822 165.753 40.032C165.945 40.242 166.205 40.3783 166.488 40.4172C167.052 40.4489 167.469 40.0847 167.643 39.3617C167.675 39.2279 167.698 39.0921 167.712 38.9553Z" fill="white"/>
<path d="M152.67 38.76C152.697 39.0971 152.653 39.436 152.54 39.7547C152.427 40.0734 152.248 40.3648 152.015 40.6097C151.782 40.8547 151.5 41.0479 151.187 41.1766C150.875 41.3053 150.538 41.3666 150.2 41.3567C149.868 41.3706 149.536 41.3145 149.226 41.192C148.917 41.0694 148.636 40.8832 148.404 40.6453C148.171 40.4074 147.99 40.1232 147.874 39.8112C147.758 39.4991 147.709 39.1661 147.73 38.8339C147.709 38.4959 147.76 38.1572 147.878 37.8399C147.996 37.5226 148.18 37.2338 148.418 36.9923C148.655 36.7508 148.941 36.5621 149.256 36.4384C149.572 36.3146 149.909 36.2587 150.248 36.2742C150.575 36.2592 150.902 36.3137 151.207 36.4342C151.512 36.5547 151.788 36.7384 152.017 36.9732C152.246 37.208 152.423 37.4887 152.535 37.7966C152.648 38.1046 152.694 38.4329 152.67 38.76ZM149.044 38.9236C149.06 39.1268 149.093 39.3281 149.145 39.5253C149.193 39.7719 149.324 39.9948 149.516 40.157C149.708 40.3192 149.949 40.411 150.2 40.4172C150.443 40.4087 150.676 40.3194 150.862 40.1636C151.049 40.0078 151.178 39.7943 151.229 39.5569C151.42 39.0608 151.42 38.5119 151.229 38.0158C151.173 37.7906 151.043 37.5904 150.861 37.4463C150.678 37.3022 150.454 37.2223 150.221 37.2189C149.985 37.2098 149.753 37.2803 149.561 37.4191C149.37 37.5578 149.231 37.7568 149.166 37.9842C149.067 38.2869 149.025 38.6056 149.044 38.9236Z" fill="white"/>
<path d="M95.9975 36.9444C96.2399 36.7408 96.5036 36.5639 96.7839 36.4167C97.0446 36.2955 97.3315 36.2418 97.6184 36.2604C97.9053 36.2791 98.1828 36.3696 98.4256 36.5236C98.6684 36.6775 98.8686 36.89 99.0078 37.1416C99.147 37.3931 99.2207 37.6756 99.2222 37.963C99.2855 38.95 99.2222 39.9475 99.2222 40.9344C99.2222 41.4622 98.8211 41.2511 98.5836 41.2617C98.3461 41.2722 97.9555 41.4305 97.9661 40.908C97.9661 40.1058 97.9661 39.3247 97.9661 38.5067C97.9661 37.6886 97.6283 37.2981 97.053 37.3192C96.4778 37.3403 96.0872 37.8153 96.0819 38.5647C96.0766 39.3142 96.0503 40.0847 96.0819 40.8394C96.0819 41.4411 95.6967 41.2511 95.4011 41.2722C95.1055 41.2933 94.7783 41.3514 94.7889 40.8289C94.8205 39.4989 94.7889 38.19 94.7889 36.8442C94.7889 36.6278 94.6833 36.3164 95.0739 36.3797C95.38 36.4325 95.9025 36.0947 95.913 36.7808C95.9353 36.8382 95.9636 36.8931 95.9975 36.9444Z" fill="white"/>
<path d="M82.2067 36.9761C82.5259 36.5914 82.9818 36.3455 83.4786 36.29C83.8794 36.2172 84.2927 36.3016 84.6328 36.5257C84.9729 36.7498 85.2135 37.0964 85.3047 37.4933C85.4876 38.6614 85.5177 39.8483 85.3945 41.0242C85.3945 41.515 84.8667 41.1878 84.5553 41.2617C84.2439 41.3355 84.1647 41.2353 84.17 40.9344C84.17 40.1322 84.17 39.3511 84.17 38.5278C84.2034 38.3069 84.1712 38.0812 84.0773 37.8785C83.9835 37.6758 83.8322 37.5052 83.6422 37.3878C83.4896 37.3255 83.3237 37.3028 83.1599 37.3215C82.996 37.3403 82.8396 37.4001 82.705 37.4953C82.5703 37.5905 82.4619 37.718 82.3895 37.8662C82.3172 38.0144 82.2834 38.1784 82.2911 38.343C82.2595 39.1664 82.2489 39.9897 82.2911 40.8131C82.3281 41.3989 81.9533 41.2617 81.6367 41.2669C81.32 41.2722 80.9822 41.3619 80.9981 40.7972C81.0403 39.4883 80.9981 38.1583 80.9981 36.8758C80.9981 36.6383 80.8872 36.3111 81.32 36.348C81.6261 36.3903 82.0958 36.1264 82.1222 36.7492C82.1399 36.8283 82.1684 36.9046 82.2067 36.9761Z" fill="white"/>
<path d="M143.556 36.9445C143.735 36.7967 143.856 36.6806 143.994 36.5856C144.229 36.4045 144.508 36.2876 144.802 36.2465C145.096 36.2054 145.396 36.2414 145.672 36.351C145.948 36.4606 146.191 36.64 146.377 36.8717C146.563 37.1034 146.686 37.3795 146.733 37.6728C146.867 38.76 146.894 39.8579 146.812 40.9503C146.812 41.4781 146.332 41.1878 146.073 41.2353C145.814 41.2828 145.545 41.3461 145.545 40.9186C145.545 40.222 145.545 39.5253 145.545 38.8075C145.556 38.5983 145.556 38.3887 145.545 38.1795C145.45 37.562 145.118 37.2453 144.611 37.277C144.356 37.2933 144.117 37.4092 143.946 37.5996C143.776 37.7901 143.686 38.04 143.698 38.2956C143.698 39.1189 143.656 39.9422 143.698 40.7603C143.735 41.3408 143.371 41.2247 143.054 41.2247C142.737 41.2247 142.384 41.3409 142.405 40.7656C142.447 39.5411 142.405 38.3167 142.405 37.0975C142.405 36.8389 142.125 36.4061 142.642 36.3375C143.054 36.327 143.556 36.2214 143.556 36.9445Z" fill="white"/>
<path d="M103.017 39.1558C102.595 39.1558 102.172 39.1558 101.75 39.1558C101.444 39.1558 101.391 39.2825 101.486 39.5464C101.544 39.7164 101.641 39.8704 101.77 39.996C101.898 40.1216 102.054 40.2153 102.225 40.2695C102.71 40.4196 103.228 40.4306 103.719 40.3011C103.946 40.2536 104.247 40.0319 104.321 40.5281C104.394 41.0242 104.321 41.135 103.893 41.2142C103.276 41.3511 102.639 41.3726 102.014 41.2775C100.605 41.0083 99.8555 39.5517 100.315 38.0106C100.395 37.693 100.543 37.3962 100.747 37.1399C100.951 36.8836 101.207 36.6737 101.499 36.5239C101.79 36.3742 102.11 36.2882 102.437 36.2715C102.765 36.2548 103.092 36.3079 103.397 36.4272C103.84 36.653 104.201 37.0111 104.431 37.452C104.661 37.8928 104.748 38.3943 104.679 38.8867C104.627 39.1558 104.479 39.1664 104.278 39.1611L103.017 39.1558ZM101.434 38.2639C102.009 38.2639 102.547 38.2639 103.086 38.2639C103.539 38.2639 103.513 38.0581 103.397 37.7361C103.336 37.5325 103.204 37.3576 103.024 37.2433C102.845 37.129 102.631 37.0829 102.42 37.1133C101.824 37.2295 101.539 37.6358 101.428 38.2639H101.434Z" fill="white"/>
<path d="M179.444 39.1558C179.043 39.1558 178.642 39.1558 178.241 39.1558C177.84 39.1558 177.819 39.3194 177.951 39.6203C178.018 39.7745 178.117 39.9127 178.242 40.0255C178.366 40.1384 178.514 40.2233 178.674 40.2747C179.162 40.4145 179.679 40.4145 180.167 40.2747C180.41 40.2272 180.695 40.0372 180.759 40.5228C180.822 40.9028 180.806 41.0981 180.373 41.1772C179.76 41.3263 179.124 41.355 178.5 41.2617C178.079 41.214 177.683 41.0356 177.369 40.7516C177.055 40.4676 176.837 40.0923 176.747 39.6783C176.59 39.1827 176.576 38.6527 176.707 38.1494C176.838 37.6462 177.108 37.19 177.486 36.8336C177.801 36.5481 178.191 36.3587 178.61 36.2876C179.029 36.2166 179.459 36.2668 179.851 36.4325C180.294 36.6564 180.655 37.0151 180.882 37.457C181.108 37.8989 181.189 38.4013 181.112 38.8919C181.059 39.1664 180.901 39.1558 180.706 39.1558H179.444ZM178.848 38.2639C179.057 38.2507 179.267 38.2507 179.476 38.2639C179.951 38.3219 179.956 38.0739 179.824 37.7361C179.77 37.5765 179.67 37.4357 179.539 37.3301C179.407 37.2245 179.248 37.1585 179.08 37.1397C178.903 37.1144 178.723 37.1378 178.558 37.2076C178.393 37.2774 178.251 37.3907 178.146 37.5355C178.004 37.715 177.829 37.9419 177.914 38.1478C177.998 38.3536 178.278 38.2217 178.473 38.248C178.601 38.2617 178.73 38.267 178.859 38.2639H178.848Z" fill="white"/>
<path d="M71.2975 39.1558C70.8964 39.1558 70.4953 39.1558 70.0994 39.1558C69.7036 39.1558 69.6561 39.3722 69.788 39.6836C69.8589 39.8377 69.9627 39.9743 70.0922 40.0838C70.2217 40.1932 70.3738 40.2728 70.5375 40.3169C71.0055 40.4462 71.4998 40.4462 71.9678 40.3169C72.2264 40.2642 72.4955 40.09 72.5958 40.5967C72.6961 41.1033 72.5483 41.1244 72.1736 41.2247C71.5608 41.3783 70.9229 41.4034 70.3 41.2986C69.8862 41.2411 69.4997 41.0587 69.1923 40.7758C68.8848 40.4929 68.671 40.1229 68.5794 39.7153C68.4148 39.2216 68.3934 38.6915 68.5176 38.1862C68.6419 37.6809 68.9067 37.2211 69.2814 36.86C69.589 36.5648 69.9762 36.366 70.3954 36.2882C70.8146 36.2103 71.2474 36.2568 71.6405 36.4219C72.0982 36.6419 72.4716 37.0053 72.704 37.4568C72.9365 37.9083 73.0152 38.4233 72.9283 38.9236C72.8703 39.1717 72.7278 39.1558 72.5641 39.1558H71.2975ZM70.7222 38.2639C70.8276 38.2718 70.9335 38.2718 71.0389 38.2639C71.2658 38.2164 71.6194 38.4117 71.6933 38.1161C71.7146 37.9577 71.6871 37.7966 71.6145 37.6542C71.5419 37.5119 71.4276 37.395 71.2869 37.3192C71.0993 37.1785 70.8648 37.1153 70.6319 37.1429C70.3991 37.1704 70.1857 37.2864 70.0361 37.4669C69.8514 37.6464 69.6614 37.8839 69.7405 38.1267C69.8197 38.3694 70.1364 38.2164 70.3475 38.2586C70.4719 38.2736 70.5975 38.2754 70.7222 38.2639Z" fill="white"/>
<path d="M108.131 39.1558C107.735 39.1558 107.334 39.1558 106.933 39.1558C106.532 39.1558 106.505 39.3722 106.637 39.6836C106.744 39.8906 106.904 40.0655 107.101 40.1907C107.297 40.3158 107.524 40.3867 107.756 40.3961C108.11 40.4351 108.468 40.4083 108.812 40.3169C109.086 40.2536 109.34 40.1322 109.44 40.6072C109.54 41.0822 109.35 41.135 108.991 41.23C108.378 41.3771 107.741 41.4004 107.118 41.2986C105.703 41.0294 104.97 39.6044 105.424 38.0422C105.505 37.7264 105.653 37.4314 105.856 37.1765C106.06 36.9216 106.315 36.7126 106.605 36.5632C106.895 36.4137 107.213 36.3272 107.539 36.3092C107.865 36.2912 108.191 36.3422 108.495 36.4589C108.95 36.6862 109.319 37.0538 109.548 37.5072C109.777 37.9606 109.854 38.4758 109.767 38.9764C109.704 39.2139 109.561 39.2033 109.392 39.2033L108.131 39.1558ZM107.566 38.2639C107.776 38.2534 107.985 38.2534 108.194 38.2639C108.617 38.3061 108.632 38.1161 108.506 37.7836C108.458 37.6333 108.373 37.4974 108.258 37.3886C108.144 37.2798 108.004 37.2016 107.852 37.1611C107.699 37.1206 107.539 37.1192 107.386 37.1569C107.233 37.1947 107.091 37.2705 106.975 37.3772C106.754 37.5725 106.511 37.8364 106.595 38.1214C106.68 38.4064 107.028 38.2111 107.255 38.2586C107.358 38.2683 107.463 38.2701 107.566 38.2639Z" fill="white"/>
<path d="M59.3486 38.4169C59.3486 37.62 59.3486 36.8336 59.3486 36.0156C59.3486 35.6936 59.2695 35.5564 58.9264 35.5828C58.5834 35.6092 58.3353 35.5511 58.045 35.5828C57.4486 35.6778 57.4064 35.3558 57.4381 34.8914C57.4381 34.6222 57.5331 34.5325 57.8075 34.5325C59.2589 34.5325 60.7103 34.5325 62.1617 34.5325C62.642 34.5325 62.4836 34.8597 62.51 35.1025C62.5364 35.3453 62.51 35.6303 62.1353 35.5722C62.0949 35.5696 62.0543 35.5696 62.0139 35.5722C60.61 35.6039 60.61 35.6039 60.61 37.0342C60.61 38.2744 60.5784 39.5147 60.61 40.755C60.61 41.3672 60.2564 41.23 59.9186 41.2564C59.5809 41.2828 59.2906 41.2564 59.317 40.7286C59.3803 39.9792 59.3486 39.1981 59.3486 38.4169Z" fill="white"/>
<path d="M184.654 36.9075C184.754 37.3667 184.432 37.3878 184.089 37.3403C183.614 37.2717 183.466 37.4511 183.503 37.9261C183.54 38.4011 183.503 39.0186 183.503 39.5622C183.503 40.1059 183.688 40.3433 184.221 40.2906C184.458 40.2642 184.654 40.2906 184.601 40.602C184.548 40.9133 184.77 41.1983 184.295 41.2986C183.076 41.5731 182.3 41.0136 182.258 39.7681C182.258 39.0925 182.258 38.4222 182.258 37.7467C182.258 37.5831 182.342 37.3139 182.02 37.3508C181.598 37.3983 181.55 37.1767 181.545 36.8231C181.54 36.4695 181.645 36.3322 182.009 36.3533C182.374 36.3745 182.236 36.0261 182.252 35.8256C182.303 35.5756 182.449 35.3547 182.658 35.2084C182.867 35.0621 183.124 35.0016 183.376 35.0392C183.614 35.1236 183.514 35.3347 183.503 35.472C183.434 36.0789 183.503 36.4958 184.295 36.3533C184.722 36.2953 184.654 36.6172 184.654 36.9075Z" fill="white"/>
<path d="M172.341 41.3461C172.027 41.3895 171.709 41.3686 171.404 41.2847C171.099 41.2008 170.814 41.0557 170.567 40.8581C170.32 40.6606 170.116 40.4147 169.967 40.1357C169.818 39.8566 169.728 39.5501 169.702 39.235C169.642 38.9127 169.647 38.5818 169.717 38.2615C169.786 37.9412 169.919 37.638 170.107 37.3696C170.295 37.1013 170.535 36.8732 170.813 36.6987C171.09 36.5242 171.4 36.4068 171.723 36.3533C172.159 36.2742 172.606 36.2742 173.043 36.3533C173.343 36.4114 173.634 36.4483 173.507 36.8811C173.407 37.24 173.343 37.4775 172.858 37.3244C172.568 37.2119 172.249 37.203 171.954 37.2992C171.658 37.3954 171.405 37.5908 171.238 37.8522C171.057 38.1144 170.955 38.4233 170.946 38.7416C170.937 39.06 171.02 39.3743 171.185 39.6467C171.34 39.9143 171.58 40.1225 171.867 40.2382C172.153 40.3539 172.471 40.3704 172.768 40.2853C173.148 40.2219 173.47 40.1217 173.518 40.7022C173.544 41.04 173.438 41.1719 173.143 41.23L172.341 41.3461Z" fill="white"/>
<path d="M154.723 37.1714C154.845 36.9457 155.015 36.7497 155.221 36.5974C155.427 36.445 155.665 36.3401 155.916 36.29C156.212 36.2531 156.47 36.29 156.381 36.6647C156.312 36.9392 156.718 37.4194 156.048 37.4775C155.23 37.5461 154.924 37.8997 154.913 38.7442C154.913 39.4619 154.913 40.1797 154.913 40.8922C154.913 41.4675 154.502 41.2406 154.238 41.2564C153.974 41.2722 153.631 41.4094 153.631 40.8922C153.631 39.4831 153.631 38.0739 153.594 36.67C153.594 36.3956 153.752 36.3322 153.958 36.3797C154.164 36.4272 154.57 36.1633 154.686 36.6119C154.712 36.7973 154.724 36.9843 154.723 37.1714Z" fill="white"/>
<path d="M111.815 37.0922C112 36.8835 112.204 36.691 112.422 36.5169C112.696 36.3217 113.082 36.1211 113.345 36.3533C113.609 36.5856 113.43 36.9919 113.425 37.3192C113.425 37.5567 113.203 37.4511 113.076 37.4669C112.38 37.5567 112.058 37.8364 112.021 38.5542C111.968 39.2901 111.957 40.0284 111.989 40.7656C112.015 41.2933 111.741 41.2933 111.372 41.2933C111.002 41.2933 110.722 41.3672 110.733 40.8131C110.733 39.4672 110.733 38.1161 110.696 36.7703C110.696 36.5117 110.759 36.3217 111.039 36.3956C111.319 36.4694 111.715 36.1317 111.794 36.6753C111.799 36.7756 111.799 36.8969 111.815 37.0922Z" fill="white"/>
<path d="M115.515 38.8708C115.515 39.5411 115.515 40.2167 115.515 40.8869C115.515 41.4147 115.166 41.2775 114.908 41.2564C114.649 41.2353 114.222 41.478 114.222 40.908C114.222 39.5217 114.222 38.1354 114.222 36.7492C114.222 36.1317 114.676 36.4167 114.95 36.3744C115.224 36.3322 115.536 36.3164 115.515 36.7914C115.488 37.4722 115.515 38.1741 115.515 38.8708Z" fill="white"/>
<path d="M93.5697 38.8392C93.5697 39.5095 93.5433 40.185 93.5697 40.8553C93.5961 41.3356 93.2899 41.2986 93.0049 41.2617C92.7199 41.2247 92.2819 41.4886 92.2872 40.8764C92.2872 39.5095 92.2872 38.1478 92.2872 36.7808C92.2872 36.1739 92.7041 36.4008 92.9891 36.3692C93.2741 36.3375 93.6119 36.3111 93.5802 36.8231C93.538 37.4722 93.5697 38.1689 93.5697 38.8392Z" fill="white"/>
<path d="M175.687 38.8233C175.687 39.4989 175.687 40.1692 175.687 40.8394C175.687 41.5097 175.296 41.2405 175.011 41.2617C174.726 41.2828 174.388 41.3725 174.404 40.8289C174.441 39.4831 174.436 38.1372 174.404 36.7914C174.404 36.1844 174.8 36.3903 175.085 36.3744C175.37 36.3586 175.729 36.2636 175.692 36.8072C175.65 37.4722 175.687 38.153 175.687 38.8233Z" fill="white"/>
<path d="M174.99 35.72C174.903 35.7252 174.816 35.7113 174.735 35.6792C174.654 35.6471 174.581 35.5976 174.521 35.5342C174.461 35.4708 174.416 35.395 174.388 35.3122C174.361 35.2294 174.352 35.1416 174.362 35.055C174.356 34.9589 174.372 34.8626 174.408 34.7734C174.444 34.6841 174.5 34.6043 174.572 34.5398C174.644 34.4754 174.729 34.4279 174.821 34.4011C174.914 34.3742 175.011 34.3686 175.106 34.3847C175.197 34.3806 175.288 34.3967 175.372 34.4318C175.456 34.4669 175.531 34.5202 175.592 34.5878C175.653 34.6554 175.699 34.7356 175.725 34.8228C175.751 34.9099 175.758 35.0019 175.745 35.092C175.75 35.5142 175.46 35.7253 174.99 35.72Z" fill="white"/>
<path d="M115.583 35.0656C115.587 35.1542 115.573 35.2426 115.54 35.325C115.507 35.4074 115.457 35.4818 115.393 35.5433C115.329 35.6048 115.252 35.6519 115.169 35.6814C115.085 35.711 114.996 35.7223 114.908 35.7147C114.819 35.7304 114.727 35.726 114.64 35.702C114.552 35.678 114.471 35.6349 114.403 35.5758C114.334 35.5168 114.279 35.4432 114.243 35.3604C114.206 35.2777 114.188 35.1878 114.19 35.0972C114.186 34.9125 114.255 34.7336 114.383 34.6C114.511 34.4664 114.686 34.3889 114.871 34.3847C115.056 34.3805 115.234 34.4499 115.368 34.5776C115.502 34.7053 115.579 34.8808 115.583 35.0656Z" fill="white"/>
<path d="M92.2555 35.0497C92.2505 34.9583 92.2653 34.8669 92.299 34.7818C92.3326 34.6967 92.3844 34.6199 92.4506 34.5566C92.5168 34.4934 92.5959 34.4453 92.6825 34.4157C92.7691 34.386 92.8611 34.3754 92.9522 34.3847C93.1285 34.391 93.2952 34.4671 93.4155 34.5963C93.5357 34.7255 93.5997 34.8971 93.5934 35.0735C93.5871 35.2498 93.511 35.4165 93.3819 35.5367C93.2527 35.657 93.0811 35.721 92.9047 35.7147C92.8164 35.7213 92.7277 35.7085 92.6449 35.6772C92.562 35.6459 92.4871 35.5968 92.4252 35.5334C92.3633 35.4701 92.3161 35.3939 92.2868 35.3104C92.2575 35.2268 92.2468 35.1378 92.2555 35.0497Z" fill="white"/>
<path d="M178.859 38.2639C178.734 38.2718 178.609 38.2718 178.484 38.2639C178.289 38.2375 178.009 38.3747 177.925 38.1636C177.84 37.9525 178.014 37.7308 178.157 37.5514C178.262 37.4066 178.404 37.2932 178.569 37.2234C178.733 37.1537 178.914 37.1302 179.091 37.1555C179.259 37.1743 179.418 37.2404 179.549 37.3459C179.681 37.4515 179.78 37.5923 179.835 37.7519C179.967 38.0792 179.962 38.3272 179.487 38.2797C179.278 38.2612 179.068 38.2559 178.859 38.2639Z" fill="#FDFEFE"/>
<path d="M70.7223 38.2639C70.5977 38.2771 70.4721 38.2771 70.3476 38.2639C70.1365 38.2217 69.8198 38.4169 69.7406 38.1319C69.6615 37.8469 69.8515 37.6517 70.0362 37.4722C70.1858 37.2917 70.3992 37.1756 70.632 37.1481C70.8649 37.1206 71.0994 37.1837 71.287 37.3244C71.4277 37.4002 71.542 37.5171 71.6146 37.6595C71.6872 37.8019 71.7147 37.963 71.6934 38.1214C71.6195 38.4169 71.2659 38.2217 71.0389 38.2692C70.9334 38.2753 70.8276 38.2736 70.7223 38.2639Z" fill="#FDFEFE"/>
<path d="M25.8294 5.17749C29.8892 5.19146 33.8533 6.41155 37.2184 8.68287C40.5834 10.9542 43.1976 14.1743 44.7289 17.9342C46.2603 21.6942 46.6398 25.8244 45.8192 29.8004C44.9987 33.7765 43.015 37.419 40.1202 40.2655C37.2254 43.112 33.55 45.034 29.5607 45.7876C25.5714 46.5411 21.4482 46.0921 17.7145 44.4977C13.9809 42.9033 10.8053 40.2353 8.5909 36.8325C6.37655 33.4297 5.22334 29.4456 5.27772 25.3861C5.3279 19.9824 7.5202 14.8195 11.3734 11.0306C15.2265 7.2418 20.4256 5.13671 25.8294 5.17749ZM45.3572 25.6922C45.3696 21.8211 44.2348 18.0331 42.0962 14.8063C39.9576 11.5796 36.911 9.05869 33.3409 7.56195C29.7709 6.0652 25.8374 5.65966 22.037 6.39652C18.2367 7.13338 14.7398 8.97961 11.9878 11.7022C9.23584 14.4247 7.35212 17.9015 6.57443 21.6937C5.79675 25.4859 6.15998 29.4236 7.61826 33.0095C9.07653 36.5955 11.5645 39.669 14.7681 41.8422C17.9717 44.0154 21.7473 45.1908 25.6183 45.22C28.1992 45.2381 30.7584 44.7471 33.1494 43.7751C35.5404 42.8031 37.7163 41.3692 39.5526 39.5555C41.3889 37.7418 42.8496 35.5837 43.851 33.2049C44.8524 30.8261 45.375 28.2732 45.3888 25.6922H45.3572Z" fill="white"/>
<path d="M23.9348 38.8233C23.9348 37.4722 23.9031 36.1211 23.9348 34.7753C23.9348 34.2475 23.7712 34.1578 23.3015 34.1683C21.7181 34.1683 20.1348 34.1683 18.5515 34.1683C18.1345 34.1683 18.0237 34.0522 18.0237 33.6406C18.0501 32.9017 18.0237 32.1628 18.0237 31.4239C18.0237 31.1019 18.1187 30.9911 18.4512 30.9806C18.9209 30.9806 19.5067 31.2181 19.8287 30.8592C20.1506 30.5003 20.082 29.9883 20.1876 29.5345C20.8666 26.4733 21.551 23.4122 22.2406 20.3511C22.3356 19.9447 22.3198 19.6914 21.8026 19.7653C21.4965 19.8128 21.3698 19.6703 21.412 19.3694V19.3061C21.412 18.6781 21.2062 17.86 21.5176 17.4747C21.829 17.0894 22.6998 17.3639 23.3226 17.3481C24.1934 17.3481 24.1934 17.3481 24.1934 16.4878C24.1934 15.6275 24.1934 14.6722 24.1934 13.7644C24.2066 13.601 24.1782 13.4369 24.1108 13.2874C24.0434 13.1379 23.9393 13.0078 23.8081 12.9095C23.4998 12.6447 23.249 12.3197 23.0711 11.9543C22.8932 11.589 22.792 11.1911 22.7737 10.7851C22.7554 10.3792 22.8204 9.9738 22.9647 9.59394C23.1091 9.21407 23.3296 8.86778 23.6128 8.57639C23.8997 8.28805 24.2415 8.06029 24.6181 7.90666C24.9946 7.75303 25.3982 7.67665 25.8049 7.68206C26.2115 7.68748 26.613 7.77457 26.9853 7.93818C27.3576 8.10179 27.6933 8.33857 27.9723 8.63445C28.2474 8.93336 28.4586 9.28535 28.5928 9.66881C28.7271 10.0523 28.7815 10.4591 28.7528 10.8644C28.7242 11.2696 28.613 11.6648 28.4261 12.0255C28.2393 12.3863 27.9807 12.705 27.6662 12.9622C27.5498 13.045 27.457 13.1567 27.3969 13.2863C27.3367 13.4158 27.3113 13.5588 27.3231 13.7011C27.3231 14.7567 27.3653 15.8122 27.3231 16.8678C27.3231 17.2742 27.4551 17.3956 27.8509 17.3533C28.4842 17.3269 29.1176 17.3533 29.7456 17.3533C30.0465 17.3533 30.1626 17.4325 30.1467 17.7386C30.1467 18.1397 30.1467 18.5408 30.1467 18.9419C30.1467 19.4381 30.247 19.9236 29.4501 19.8022C29.0859 19.7494 29.2548 20.0978 29.2917 20.2667C29.8195 22.5467 30.3103 24.8267 30.8223 27.1278C31.0756 28.2572 31.3501 29.3814 31.5717 30.5161C31.6509 30.9331 31.8198 31.0439 32.2367 31.0439C33.5403 31.0439 33.5403 31.0439 33.5403 32.3317C33.5403 32.775 33.5087 33.2236 33.5403 33.6617C33.572 34.0997 33.3926 34.1894 32.9704 34.1894C31.387 34.1894 29.8037 34.1894 28.2204 34.1894C27.7242 34.1894 27.6345 34.3425 27.6345 34.7964C27.6345 37.5408 27.6345 40.28 27.6345 43.0244C27.6345 43.4836 27.5342 43.6472 27.0434 43.6261C26.162 43.5839 25.2753 43.5892 24.4045 43.6261C23.9717 43.6261 23.8767 43.4836 23.8767 43.0983C23.9453 41.6469 23.9348 40.2378 23.9348 38.8233ZM25.8137 31.0069H29.3551C29.6295 31.0069 29.7931 31.0069 29.714 30.6322C28.9223 27.1418 28.1394 23.6497 27.3654 20.1558C27.302 19.8708 27.1912 19.7706 26.9062 19.7758C26.1673 19.7758 25.4284 19.7758 24.6895 19.7758C24.634 19.7636 24.5764 19.7634 24.5208 19.7754C24.4651 19.7874 24.4127 19.8112 24.3672 19.8453C24.3216 19.8793 24.2839 19.9228 24.2566 19.9728C24.2294 20.0227 24.2132 20.078 24.2092 20.1347C23.4457 23.6075 22.6752 27.0803 21.8976 30.5531C21.8131 30.9225 21.8976 31.0175 22.2723 31.0122C23.4545 30.9964 24.6315 31.0069 25.8137 31.0069ZM25.7767 9.24667C25.3944 9.25487 25.0303 9.41146 24.7614 9.68332C24.4925 9.95518 24.3399 10.321 24.3359 10.7033C24.3586 11.0857 24.5252 11.4453 24.8024 11.7097C25.0795 11.9741 25.4465 12.1237 25.8295 12.1283C26.1999 12.106 26.5485 11.9457 26.8064 11.6789C27.0644 11.4122 27.213 11.0584 27.2228 10.6875C27.2235 10.4976 27.1866 10.3095 27.1141 10.1341C27.0416 9.95859 26.935 9.79924 26.8005 9.66524C26.666 9.53124 26.5063 9.42524 26.3306 9.35339C26.1548 9.28155 25.9666 9.24527 25.7767 9.24667Z" fill="white"/>
</g>
<defs>
<clipPath id="clip0">
<rect width="190" height="51.3" fill="white"/>
</clipPath>
</defs>
</svg>
